#Comment line ignore any data following # character 
#Hierarchical Translation and Rotation (.htr) file 
[Header]	
#Header keywords are followed by a single value 
FileType HTR		#Single word string
DataType HTRS		#Translation followed by rotation and scale data
FileVersion 1		#integer
NumSegments 64		#integer
NumFrames 3		#integer
DataFrameRate 30		#integer, data frame rate in this file
EulerRotationOrder ZYX
CalibrationUnits mm
RotationUnits Degrees
GlobalAxisofGravity Y
BoneLengthAxis Y
ScaleFactor 1.00
[SegmentNames&Hierarchy]
#CHILD	PARENT
Pinger_Root GLOBAL
Pelvis Pinger_Root
L_Hip Pelvis
R_Hip Pelvis
Rear_Leg01 Pelvis
Spine1 Pelvis
L_Leg01 L_Hip
L_Leg02 L_Leg01
L_Leg03 L_Leg02
L_Foot L_Leg03
L_Toe1_01 L_Foot
L_Toe2_01 L_Foot
L_Toe3_01 L_Foot
planeAlignerLeft L_Foot
L_Toe1_02 L_Toe1_01
L_Toe1_03 L_Toe1_02
L_Toe2_02 L_Toe2_01
L_Toe2_03 L_Toe2_02
L_Toe3_02 L_Toe3_01
L_Toe3_03 L_Toe3_02
planeLockWeightLeft planeAlignerLeft
R_Leg01 R_Hip
R_Leg02 R_Leg01
R_Leg03 R_Leg02
R_Foot R_Leg03
planeAlignerRight R_Foot
R_Toe1_01 R_Foot
R_Toe2_01 R_Foot
R_Toe3_01 R_Foot
planeLockWeightRight planeAlignerRight
R_Toe1_02 R_Toe1_01
R_Toe1_03 R_Toe1_02
R_Toe2_02 R_Toe2_01
R_Toe2_03 R_Toe2_02
R_Toe3_02 R_Toe3_01
R_Toe3_03 R_Toe3_02
Rear_Leg02 Rear_Leg01
Rear_Leg03 Rear_Leg02
Rear_Leg04 Rear_Leg03
Rear_Foot Rear_Leg04
planeAlignerCenter Rear_Foot
Rear_Toe1_01 Rear_Foot
Rear_Toe2_01 Rear_Foot
Rear_Toe3_01 Rear_Foot
planeLockWeightCenter planeAlignerCenter
Rear_Toe1_02 Rear_Toe1_01
Rear_Toe1_03 Rear_Toe1_02
Rear_Toe2_02 Rear_Toe2_01
Rear_Toe2_03 Rear_Toe2_02
Rear_Toe3_02 Rear_Toe3_01
Rear_Toe3_03 Rear_Toe3_02
Back_Bone Spine1
Head Spine1
Motor_Bone Back_Bone
Ping_Mechanism Back_Bone
BN_LookIK Head
bottomMouth Head
L_Mouth01 Head
L_mouthFront Head
mouthGun Head
R_Mouth01 Head
R_mouthFront Head
TopMouth Head
weapon_bone Head
[BasePosition]
#SegmentName Tx, Ty, Tz, Rx, Ry, Rz, BoneLength
Pinger_Root 0.000000 0.000000 0.000000 -90.000000 0.000000 0.000000 10.000000 
Pelvis 0.000000 0.000000 0.000000 0.000000 0.000000 0.000000 10.000000 
L_Hip 0.000000 0.000000 0.000000 0.000000 0.000000 0.000000 10.000000 
R_Hip 0.000000 0.000000 0.000000 0.000000 0.000000 0.000000 10.000000 
Rear_Leg01 0.000000 0.000000 0.000000 0.000000 0.000000 0.000000 10.000000 
Spine1 0.000000 0.000000 0.000000 0.000000 0.000000 0.000000 10.000000 
L_Leg01 0.000000 0.000000 0.000000 0.000000 0.000000 0.000000 10.000000 
L_Leg02 0.000000 0.000000 0.000000 0.000000 0.000000 0.000000 10.000000 
L_Leg03 0.000000 0.000000 0.000000 0.000000 0.000000 0.000000 10.000000 
L_Foot 0.000000 0.000000 0.000000 0.000000 0.000000 0.000000 10.000000 
L_Toe1_01 0.000000 0.000000 0.000000 0.000000 0.000000 0.000000 10.000000 
L_Toe2_01 0.000000 0.000000 0.000000 0.000000 0.000000 0.000000 10.000000 
L_Toe3_01 0.000000 0.000000 0.000000 0.000000 0.000000 0.000000 10.000000 
planeAlignerLeft 0.000000 0.000000 0.000000 0.000000 0.000000 0.000000 10.000000 
L_Toe1_02 0.000000 0.000000 0.000000 0.000000 0.000000 0.000000 10.000000 
L_Toe1_03 0.000000 0.000000 0.000000 0.000000 0.000000 0.000000 10.000000 
L_Toe2_02 0.000000 0.000000 0.000000 0.000000 0.000000 0.000000 10.000000 
L_Toe2_03 0.000000 0.000000 0.000000 0.000000 0.000000 0.000000 10.000000 
L_Toe3_02 0.000000 0.000000 0.000000 0.000000 0.000000 0.000000 10.000000 
L_Toe3_03 0.000000 0.000000 0.000000 0.000000 0.000000 0.000000 10.000000 
planeLockWeightLeft 0.000000 0.000000 0.000000 0.000000 0.000000 0.000000 10.000000 
R_Leg01 0.000000 0.000000 0.000000 0.000000 0.000000 0.000000 10.000000 
R_Leg02 0.000000 0.000000 0.000000 0.000000 0.000000 0.000000 10.000000 
R_Leg03 0.000000 0.000000 0.000000 0.000000 0.000000 0.000000 10.000000 
R_Foot 0.000000 0.000000 0.000000 0.000000 0.000000 0.000000 10.000000 
planeAlignerRight 0.000000 0.000000 0.000000 0.000000 0.000000 0.000000 10.000000 
R_Toe1_01 0.000000 0.000000 0.000000 0.000000 0.000000 0.000000 10.000000 
R_Toe2_01 0.000000 0.000000 0.000000 0.000000 0.000000 0.000000 10.000000 
R_Toe3_01 0.000000 0.000000 0.000000 0.000000 0.000000 0.000000 10.000000 
planeLockWeightRight 0.000000 0.000000 0.000000 0.000000 0.000000 0.000000 10.000000 
R_Toe1_02 0.000000 0.000000 0.000000 0.000000 0.000000 0.000000 10.000000 
R_Toe1_03 0.000000 0.000000 0.000000 0.000000 0.000000 0.000000 10.000000 
R_Toe2_02 0.000000 0.000000 0.000000 0.000000 0.000000 0.000000 10.000000 
R_Toe2_03 0.000000 0.000000 0.000000 0.000000 0.000000 0.000000 10.000000 
R_Toe3_02 0.000000 0.000000 0.000000 0.000000 0.000000 0.000000 10.000000 
R_Toe3_03 0.000000 0.000000 0.000000 0.000000 0.000000 0.000000 10.000000 
Rear_Leg02 0.000000 0.000000 0.000000 0.000000 0.000000 0.000000 10.000000 
Rear_Leg03 0.000000 0.000000 0.000000 0.000000 0.000000 0.000000 10.000000 
Rear_Leg04 0.000000 0.000000 0.000000 0.000000 0.000000 0.000000 10.000000 
Rear_Foot 0.000000 0.000000 0.000000 0.000000 0.000000 0.000000 10.000000 
planeAlignerCenter 0.000000 0.000000 0.000000 0.000000 0.000000 0.000000 10.000000 
Rear_Toe1_01 0.000000 0.000000 0.000000 0.000000 0.000000 0.000000 10.000000 
Rear_Toe2_01 0.000000 0.000000 0.000000 0.000000 0.000000 0.000000 10.000000 
Rear_Toe3_01 0.000000 0.000000 0.000000 0.000000 0.000000 0.000000 10.000000 
planeLockWeightCenter 0.000000 0.000000 0.000000 0.000000 0.000000 0.000000 10.000000 
Rear_Toe1_02 0.000000 0.000000 0.000000 0.000000 0.000000 0.000000 10.000000 
Rear_Toe1_03 0.000000 0.000000 0.000000 0.000000 0.000000 0.000000 10.000000 
Rear_Toe2_02 0.000000 0.000000 0.000000 0.000000 0.000000 0.000000 10.000000 
Rear_Toe2_03 0.000000 0.000000 0.000000 0.000000 0.000000 0.000000 10.000000 
Rear_Toe3_02 0.000000 0.000000 0.000000 0.000000 0.000000 0.000000 10.000000 
Rear_Toe3_03 0.000000 0.000000 0.000000 0.000000 0.000000 0.000000 10.000000 
Back_Bone 0.000000 0.000000 0.000000 0.000000 0.000000 0.000000 10.000000 
Head 0.000000 0.000000 0.000000 0.000000 0.000000 0.000000 10.000000 
Motor_Bone 0.000000 0.000000 0.000000 0.000000 0.000000 0.000000 10.000000 
Ping_Mechanism 0.000000 0.000000 0.000000 0.000000 0.000000 0.000000 10.000000 
BN_LookIK 0.000000 0.000000 0.000000 0.000000 0.000000 0.000000 10.000000 
bottomMouth 0.000000 0.000000 0.000000 0.000000 0.000000 0.000000 10.000000 
L_Mouth01 0.000000 0.000000 0.000000 0.000000 0.000000 0.000000 10.000000 
L_mouthFront 0.000000 0.000000 0.000000 0.000000 0.000000 0.000000 10.000000 
mouthGun 0.000000 0.000000 0.000000 0.000000 0.000000 0.000000 10.000000 
R_Mouth01 0.000000 0.000000 0.000000 0.000000 0.000000 0.000000 10.000000 
R_mouthFront 0.000000 0.000000 0.000000 0.000000 0.000000 0.000000 10.000000 
TopMouth 0.000000 0.000000 0.000000 0.000000 0.000000 0.000000 10.000000 
weapon_bone 0.000000 0.000000 0.000000 0.000000 0.000000 0.000000 10.000000 
#Beginning of Data. Separated by tabs
#Fr	Tx	Ty	Tz	Rx	Ry	Rz	SF
[Pinger_Root]
62 0.000000 0.000000 0.000000 -0.000075 -0.000000 -0.000020 0.000000
63 0.000000 0.000000 0.000000 -0.000075 -0.000000 -0.000020 0.000000
64 0.000000 0.000000 0.000000 -0.000075 -0.000000 -0.000020 0.000000
[Pelvis]
62 72.493637 914.733154 4466.995117 -99.824738 -85.739342 92.206444 4560.267090
63 72.378922 915.393005 4455.045898 -99.953751 -85.797600 92.336212 4548.693848
64 72.264206 916.052795 4443.096680 -100.086578 -85.855843 92.469734 4537.123047
[L_Hip]
62 5.766392 125.831482 872.656799 160.158691 -45.484913 122.312202 881.701050
63 5.766392 125.831482 872.656799 160.158691 -45.484905 122.312202 881.701050
64 5.766392 125.831482 872.656799 160.158691 -45.484905 122.312202 881.701050
[R_Hip]
62 5.765438 125.836372 -872.654907 38.087841 49.812687 125.703735 881.699829
63 5.765438 125.836372 -872.654907 38.087841 49.812687 125.703735 881.699829
64 5.765438 125.836372 -872.654907 38.087841 49.812687 125.703735 881.699829
[Rear_Leg01]
62 -192.298416 -925.602966 -0.001907 169.702972 2.079849 -159.182404 945.367432
63 -192.298416 -925.602966 -0.001907 169.697266 2.049522 -159.302246 945.367432
64 -192.298416 -925.602966 -0.001907 169.691620 2.019185 -159.422043 945.367432
[Spine1]
62 290.604584 5.007505 0.000477 7.262707 -0.647119 19.325432 290.647736
63 290.604584 5.007505 0.000477 7.263597 -0.635437 19.356329 290.647736
64 290.604584 5.007505 0.000477 7.264314 -0.630287 19.326492 290.647736
[L_Leg01]
62 761.932007 -0.002384 -0.069261 22.890511 -15.496410 -10.252505 761.932068
63 761.932007 -0.002384 -0.069261 22.869360 -15.555964 -9.887170 761.932068
64 761.932007 -0.002384 -0.069261 22.847815 -15.615385 -9.521708 761.932068
[L_Leg02]
62 1441.140503 -0.000954 -0.000715 2.423461 -0.179109 -127.223518 1441.140503
63 1441.140503 -0.000954 -0.000715 2.486486 -0.181552 -127.849884 1441.140503
64 1441.140503 -0.000954 -0.000715 2.549531 -0.183307 -128.476212 1441.140503
[L_Leg03]
62 1686.963989 -0.000715 -0.000954 -0.027414 0.010433 117.977478 1686.963989
63 1686.963989 -0.000715 -0.000954 -0.028048 0.011504 118.017853 1686.963989
64 1686.963989 -0.000715 -0.000954 -0.028681 0.012575 118.058220 1686.963989
[L_Foot]
62 3041.570068 -30.715107 11.297464 2.051907 13.137516 55.107731 3041.746094
63 3041.570068 -30.715107 11.297464 2.031511 13.127514 55.264053 3041.746094
64 3041.570068 -30.715107 11.297464 2.004432 13.112789 55.334457 3041.746094
[L_Toe1_01]
62 -188.216690 -224.732346 -21.137953 93.772575 -6.786839 -172.275528 293.899567
63 -188.216690 -224.732346 -21.137953 93.757751 -6.809538 -172.175964 293.899567
64 -188.216690 -224.732346 -21.137953 93.742867 -6.832211 -172.076370 293.899567
[L_Toe2_01]
62 200.746536 -219.926590 148.838394 -89.989929 -26.073298 -52.945972 332.896027
63 200.746536 -219.926590 148.838394 -90.003082 -26.146509 -52.863850 332.896027
64 200.746536 -219.926590 148.838394 -90.010002 -26.201591 -52.801823 332.896027
[L_Toe3_01]
62 188.832520 -219.859131 -191.078659 -99.840286 13.810872 -68.109352 347.140900
63 188.832520 -219.859131 -191.078659 -99.827248 13.817940 -68.000275 347.140900
64 188.832520 -219.859131 -191.078659 -99.814194 13.824989 -67.891197 347.140900
[planeAlignerLeft]
62 34.969635 -599.677490 98.607956 169.306686 -76.298271 89.968506 608.735962
63 34.364315 -597.640381 99.367027 169.306686 -76.298271 89.968506 606.818542
64 33.759003 -595.603333 100.126099 169.306686 -76.298271 89.968506 604.903503
[L_Toe1_02]
62 413.761139 0.000477 0.000000 0.000203 -25.410625 -0.000182 413.761139
63 413.761139 0.000477 0.000000 0.000203 -25.410625 -0.000182 413.761139
64 413.761139 0.000477 0.000000 0.000203 -25.410625 -0.000182 413.761139
[L_Toe1_03]
62 464.317322 0.000358 -0.000089 0.003978 55.676441 0.003978 464.317322
63 464.317322 0.000358 -0.000089 0.003891 54.891979 0.003891 464.317322
64 464.317322 0.000358 -0.000089 0.003809 54.107571 0.003809 464.317322
[L_Toe2_02]
62 342.235809 -0.000477 0.000238 0.001187 -72.680428 0.001187 342.235809
63 342.235809 -0.000477 0.000238 0.001187 -72.610825 0.001187 342.235809
64 342.235809 -0.000477 0.000238 0.001187 -72.541229 0.001187 342.235809
[L_Toe2_03]
62 420.210846 -0.000715 0.000000 0.034311 86.079590 0.034311 420.210846
63 420.210846 -0.000715 0.000000 0.032532 85.865067 0.032532 420.210846
64 420.210846 -0.000715 0.000000 0.030928 85.650482 0.030928 420.210846
[L_Toe3_02]
62 329.270111 0.000954 0.000000 0.001178 -80.467346 0.001178 329.270111
63 329.270111 0.000954 0.000000 0.001178 -80.470612 0.001178 329.270111
64 329.270111 0.000954 0.000000 0.001178 -80.473846 0.001178 329.270111
[L_Toe3_03]
62 439.137451 -0.001907 0.000954 -179.995956 78.644066 -179.992432 439.137451
63 439.137451 -0.001907 0.000954 -179.995956 78.634499 -179.992432 439.137451
64 439.137451 -0.001907 0.000954 -179.995956 78.624901 -179.992432 439.137451
[planeLockWeightLeft]
62 999.998718 0.097961 0.076027 -0.011826 -0.004376 0.005620 999.998779
63 999.998718 0.097961 0.076027 -0.011826 -0.004376 0.005620 999.998779
64 999.998718 0.097961 0.076027 -0.011826 -0.004376 0.005620 999.998779
[R_Leg01]
62 761.455627 -0.001907 -0.000358 120.519508 -10.818954 34.344852 761.455688
63 761.455627 -0.001907 -0.000358 120.361542 -9.824256 34.843964 761.455688
64 761.455627 -0.001907 -0.000358 120.249481 -8.982813 35.250721 761.455688
[R_Leg02]
62 1441.140625 0.000000 -0.000238 -1.234241 -0.153908 -121.355125 1441.140625
63 1441.140625 0.000000 -0.000238 -1.270714 -0.170217 -120.515205 1441.140625
64 1441.140625 0.000000 -0.000238 -1.307420 -0.185989 -119.675308 1441.140625
[R_Leg03]
62 1686.963989 0.000954 0.001431 0.069972 -0.036288 129.526947 1686.963989
63 1686.963989 0.000954 0.001431 0.071951 -0.037492 130.187637 1686.963989
64 1686.963989 0.000954 0.001431 0.073916 -0.038718 130.848297 1686.963989
[R_Foot]
62 3041.560059 -30.531288 -11.204481 -0.718375 -24.676498 56.863644 3041.734131
63 3041.560059 -30.531288 -11.204481 -0.653560 -24.677809 56.347496 3041.734131
64 3041.560059 -30.531288 -11.204481 -0.588737 -24.678595 55.831371 3041.734131
[planeAlignerRight]
62 -124.941521 -580.786377 -310.172089 -36.577137 -71.339012 -64.343925 670.171570
63 -125.616638 -578.715698 -311.007263 -36.577137 -71.339012 -64.343925 668.892273
64 -126.291740 -576.644897 -311.842468 -36.577137 -71.339012 -64.343925 667.618652
[R_Toe1_01]
62 -188.383347 -224.864899 21.052242 76.764091 -0.634010 -172.830170 294.101532
63 -188.383347 -224.864899 21.052242 76.763908 -0.579156 -172.804794 294.101532
64 -188.383347 -224.864899 21.052242 76.763771 -0.524302 -172.779434 294.101532
[R_Toe2_01]
62 200.637817 -220.002121 -148.787384 -91.825386 32.533955 -59.521549 332.857574
63 200.637817 -220.002121 -148.787384 -91.805130 32.618969 -59.436893 332.857574
64 200.637817 -220.002121 -148.787384 -91.784668 32.703949 -59.352097 332.857574
[R_Toe3_01]
62 188.606735 -220.092957 191.126343 -73.205185 -8.495839 -74.134140 347.192566
63 188.606735 -220.092957 191.126343 -73.210663 -8.483621 -74.019501 347.192566
64 188.606735 -220.092957 191.126343 -73.215805 -8.474711 -73.931732 347.192566
[planeLockWeightRight]
62 999.999329 0.000000 0.076017 -0.011823 -0.004379 -0.000027 999.999329
63 999.999329 0.000000 0.076017 -0.011823 -0.004379 -0.000027 999.999329
64 999.999329 0.000000 0.076017 -0.011823 -0.004379 -0.000027 999.999329
[R_Toe1_02]
62 413.762085 0.000477 -0.000119 0.001396 -24.409010 0.001396 413.762085
63 413.762085 0.000477 -0.000119 0.001396 -24.471626 0.001396 413.762085
64 413.762085 0.000477 -0.000119 0.001395 -24.534243 0.001395 413.762085
[R_Toe1_03]
62 464.317810 0.000000 0.001088 0.007163 71.140221 0.007163 464.317810
63 464.317810 0.000000 0.001088 0.006969 70.608040 0.006969 464.317810
64 464.317810 0.000000 0.001088 0.006784 70.075882 0.006784 464.317810
[R_Toe2_02]
62 342.234741 -0.000954 0.000238 0.001196 -67.626137 0.001196 342.234741
63 342.234741 -0.000954 0.000238 0.001197 -67.524948 0.001197 342.234741
64 342.234741 -0.000954 0.000238 0.001197 -67.423691 0.001197 342.234741
[R_Toe2_03]
62 420.210846 0.000715 -0.000268 0.008634 74.375847 0.008634 420.210846
63 420.210846 0.000715 -0.000268 0.008508 74.141830 0.008508 420.210846
64 420.210846 0.000715 -0.000268 0.008385 73.907867 0.008385 420.210846
[R_Toe3_02]
62 329.270355 -0.000477 -0.000954 0.001184 -74.450325 0.001184 329.270355
63 329.270355 -0.000477 -0.000954 0.001184 -74.467392 0.001184 329.270355
64 329.270355 -0.000477 -0.000954 0.001184 -74.484505 0.001184 329.270355
[R_Toe3_03]
62 439.137939 0.000238 0.001431 -0.011355 83.138359 -0.007852 439.137939
63 439.137939 0.000238 0.001431 -0.011412 83.178902 -0.007909 439.137939
64 439.137939 0.000238 0.001431 -0.011470 83.219330 -0.007967 439.137939
[Rear_Leg02]
62 1162.777710 -0.029802 0.005960 0.600774 -2.925099 -121.806358 1162.777710
63 1162.777710 -0.029802 0.005960 0.612635 -2.920675 -122.561134 1162.777710
64 1162.777710 -0.029802 0.005960 0.620864 -2.919501 -123.147247 1162.777710
[Rear_Leg03]
62 607.192505 -0.013351 -0.073195 0.006477 -0.002105 64.216682 607.192505
63 607.192505 -0.013351 -0.073195 0.006476 -0.002108 64.277992 607.192505
64 607.192505 -0.013351 -0.073195 0.006474 -0.002112 64.339294 607.192505
[Rear_Leg04]
62 995.874512 -0.020504 -0.011921 -0.040497 -0.015216 58.086510 995.874573
63 995.874512 -0.020504 -0.011921 -0.040512 -0.015174 58.205452 995.874573
64 995.874512 -0.020504 -0.011921 -0.040528 -0.015132 58.324387 995.874573
[Rear_Foot]
62 3096.176270 -0.067472 -0.041425 -143.392960 85.759285 48.771538 3096.176270
63 3096.176270 -0.067472 -0.041425 -143.517258 85.756607 48.829357 3096.176270
64 3096.176270 -0.067472 -0.041425 -143.641632 85.753929 48.886986 3096.176270
[planeAlignerCenter]
62 1.038523 -12.958908 -783.577209 12.240772 -0.001473 179.998184 783.685059
63 1.038380 -13.648837 -781.613953 12.240772 -0.001473 179.998184 781.733826
64 1.038237 -14.338762 -779.650757 12.240772 -0.001473 179.998184 779.783264
[Rear_Toe1_01]
62 0.653352 83.966492 -371.173737 0.293899 42.138977 90.415848 380.553192
63 0.653352 83.966492 -371.173737 0.292442 42.082771 90.415184 380.553192
64 0.653352 83.966492 -371.173737 0.290986 42.026562 90.414513 380.553192
[Rear_Toe2_01]
62 178.200760 -294.826019 -362.060547 -7.097066 34.958134 -66.130791 499.765686
63 178.200760 -294.826019 -362.060547 -7.128224 34.791687 -66.173508 499.765686
64 178.200760 -294.826019 -362.060547 -7.159165 34.625214 -66.216026 499.765686
[Rear_Toe3_01]
62 -153.359680 -308.780914 -362.060852 3.236735 34.122540 -112.627174 499.952881
63 -153.359680 -308.780914 -362.060852 3.252807 33.938301 -112.601082 499.952881
64 -153.359680 -308.780914 -362.060852 3.268743 33.754059 -112.575096 499.952881
[planeLockWeightCenter]
62 1000.000000 0.000305 0.076256 -0.011814 -0.004373 -0.000015 1000.000000
63 1000.000000 0.000305 0.076256 -0.011814 -0.004373 -0.000015 1000.000000
64 1000.000000 0.000305 0.076256 -0.011814 -0.004373 -0.000015 1000.000000
[Rear_Toe1_02]
62 379.707825 0.194073 0.000477 -0.000253 -31.825325 0.006940 379.707855
63 379.707825 0.194073 0.000477 -0.000250 -31.788185 0.006939 379.707855
64 379.707825 0.194073 0.000477 -0.000247 -31.751036 0.006937 379.707855
[Rear_Toe1_03]
62 500.129700 0.165701 0.000119 -0.000048 52.442139 0.007339 500.129761
63 500.129700 0.165701 0.000119 -0.000062 52.307220 0.007328 500.129761
64 500.129700 0.165701 0.000119 -0.000076 52.172310 0.007317 500.129761
[Rear_Toe2_02]
62 340.494507 0.000238 -0.000954 0.001190 -70.865028 0.001190 340.494507
63 340.494507 0.000238 -0.000954 0.001191 -70.558388 0.001191 340.494507
64 340.494507 0.000238 -0.000954 0.001191 -70.251709 0.001191 340.494507
[Rear_Toe2_03]
62 433.103577 0.000000 0.000238 0.007263 71.401993 0.007263 433.103546
63 433.103577 0.000000 0.000238 0.007056 70.850784 0.007056 433.103546
64 433.103577 0.000000 0.000238 0.006860 70.299530 0.006860 433.103546
[Rear_Toe3_02]
62 340.494141 -0.000358 -0.000477 0.004968 -68.390907 -0.004359 340.494171
63 340.494141 -0.000358 -0.000477 0.006735 -68.011200 -0.007016 340.494171
64 340.494141 -0.000358 -0.000477 0.008428 -67.631493 -0.009600 340.494171
[Rear_Toe3_03]
62 433.103577 0.001431 -0.000238 0.003643 67.653358 0.002455 433.103546
63 433.103577 0.001431 -0.000238 0.001230 67.068924 -0.001149 433.103546
64 433.103577 0.001431 -0.000238 -0.001035 66.484489 -0.004606 433.103546
[Back_Bone]
62 1312.175781 -701.934692 0.000954 1.446467 0.015390 -86.968971 1488.125488
63 1312.175781 -701.934692 0.000954 1.466336 0.008836 -86.406708 1488.125488
64 1312.175781 -701.934692 0.000954 1.471666 0.005945 -86.058365 1488.125488
[Head]
62 1406.159424 809.709290 0.001431 0.022026 -1.476940 7.638860 1622.625488
63 1406.159424 809.709290 0.001431 0.016675 -1.476616 7.671152 1622.625488
64 1406.159424 809.709290 0.001431 0.011325 -1.476288 7.703444 1622.625488
[Motor_Bone]
62 1158.364380 -417.834747 0.000477 -0.095385 0.076104 -105.915703 1231.419434
63 1158.364380 -417.834747 0.000477 -0.095385 0.076104 -105.915703 1231.419434
64 1158.364380 -417.834747 0.000477 -0.095385 0.076104 -105.915703 1231.419434
[Ping_Mechanism]
62 1234.722046 -441.667816 -0.214037 0.000103 -0.000053 82.120995 1311.338623
63 1234.478638 -441.693207 -0.240238 0.000103 -0.000053 82.120995 1311.117920
64 1234.235107 -441.718597 -0.266440 0.000103 -0.000053 82.120995 1310.897217
[BN_LookIK]
62 193.241119 1380.371704 -0.002861 0.000000 89.965736 -31.038179 1393.832153
63 193.241119 1380.371704 -0.002861 0.000000 89.965736 -31.038179 1393.832153
64 193.241119 1380.371704 -0.002861 0.000000 89.965736 -31.038179 1393.832153
[bottomMouth]
62 -435.092926 615.759399 -0.000954 -0.000022 0.000016 73.527184 753.966492
63 -435.092926 615.759399 -0.000954 -0.000022 0.000016 73.527184 753.966492
64 -435.092926 615.759399 -0.000954 -0.000022 0.000016 73.527184 753.966492
[L_Mouth01]
62 554.440979 7.658243 838.222046 150.204178 23.759130 109.605339 1005.027161
63 554.440979 7.658243 838.222046 150.204178 23.759130 109.605339 1005.027161
64 554.440979 7.658243 838.222046 150.204178 23.759130 109.605339 1005.027161
[L_mouthFront]
62 551.629089 934.514771 339.150421 0.000081 2.804060 79.119301 1136.941284
63 551.629089 934.514771 339.150421 0.000081 2.804060 79.119301 1136.941284
64 551.629089 934.514771 339.150421 0.000081 2.804060 79.119301 1136.941284
[mouthGun]
62 55.332661 1627.420898 0.000000 0.000023 0.000009 -11.038128 1628.361328
63 55.332661 1627.420898 0.000000 0.000023 0.000009 -11.038128 1628.361328
64 55.332661 1627.420898 0.000000 0.000023 0.000009 -11.038128 1628.361328
[R_Mouth01]
62 554.442383 7.659197 -838.223938 29.795891 -23.759109 109.605331 1005.029541
63 554.442383 7.659197 -838.223938 29.795891 -23.759109 109.605331 1005.029541
64 554.442383 7.659197 -838.223938 29.795891 -23.759109 109.605331 1005.029541
[R_mouthFront]
62 551.629089 934.514282 -339.151367 0.000029 -2.803930 79.119133 1136.941162
63 551.629089 934.514282 -339.151367 0.000029 -2.803930 79.119133 1136.941162
64 551.629089 934.514282 -339.151367 0.000029 -2.803930 79.119133 1136.941162
[TopMouth]
62 461.269867 -56.106091 -0.008583 -0.000059 -0.000268 92.025169 464.669525
63 461.269867 -56.106091 -0.008583 -0.000059 -0.000268 92.025169 464.669525
64 461.269867 -56.106091 -0.008583 -0.000059 -0.000268 92.025169 464.669525
[weapon_bone]
62 -987.239868 1448.372803 0.001431 0.000000 89.965736 -31.038221 1752.833740
63 -987.239868 1448.372803 0.001431 0.000000 89.965736 -31.038221 1752.833740
64 -987.239868 1448.372803 0.001431 0.000000 89.965736 -31.038221 1752.833740
